<?xml version="1.0" encoding="utf-8"?>
<!-- Generator: Adobe Illustrator 25.0.1, SVG Export Plug-In . SVG Version: 6.00 Build 0)  -->
<svg version="1.1" xmlns="http://www.w3.org/2000/svg" xmlns:xlink="http://www.w3.org/1999/xlink" x="0px" y="0px"
	 viewBox="0 0 750 500" style="enable-background:new 0 0 750 500;" xml:space="preserve">
<style type="text/css">
	.st0{fill:#0F1027;}
	.st1{clip-path:url(#SVGID_2_);}
	.st2{fill:none;stroke:#8F9294;stroke-width:1.0782;stroke-miterlimit:10;}
	.st3{fill:#FDFDFD;}
	.st4{fill:#FF2C2C;}
	.st5{fill:none;stroke:#FF2C2C;stroke-width:1.0782;stroke-miterlimit:10;}
	.st6{fill:none;stroke:#8F9294;stroke-width:2;stroke-miterlimit:10;}
	.st7{fill:none;stroke:#D8D9DA;stroke-width:0.7797;stroke-miterlimit:10;}
	.st8{fill:#606060;stroke:#D8D9DA;stroke-miterlimit:10;}
	.st9{fill:none;stroke:#FF2C2C;stroke-miterlimit:10;}
	.st10{fill:none;stroke:#8F9294;stroke-width:0.3881;stroke-miterlimit:10;}
	.st11{fill:none;stroke:#8F9294;stroke-linecap:round;stroke-linejoin:round;stroke-miterlimit:10;}
	.st12{fill:none;stroke:#575758;stroke-linecap:round;stroke-linejoin:round;stroke-miterlimit:10;}
	.st13{fill:#8F9294;}
	.st14{clip-path:url(#SVGID_4_);fill:none;stroke:#606060;stroke-width:0.6545;stroke-miterlimit:10;}
	.st15{fill:none;stroke:#606060;stroke-width:0.6545;stroke-miterlimit:10;}
	.st16{fill:none;stroke:#8F9294;stroke-miterlimit:10;}
</style>
<g id="BACKGROUND">
	<g>
		<rect class="st0" width="750" height="500"/>
	</g>
</g>
<g id="OBJECTS">
	<g>
		<defs>
			<rect id="SVGID_1_" width="750" height="500"/>
		</defs>
		<clipPath id="SVGID_2_">
			<use xlink:href="#SVGID_1_"  style="overflow:visible;"/>
		</clipPath>
		<g class="st1">
			<g>
				<path class="st2" d="M92.56-75.2L-45.68,63.04c0.64,3.95,1.47,7.84,2.48,11.65L104.22-72.71C100.4-73.73,96.52-74.56,92.56-75.2
					z"/>
				<path class="st2" d="M104.22-72.71L-43.19,74.7c0.97,3.65,2.1,7.24,3.4,10.74L114.96-69.32
					C111.45-70.62,107.87-71.74,104.22-72.71z"/>
				<path class="st2" d="M150.69-48.49L-18.97,121.17c2.15,2.55,4.39,5.03,6.75,7.39L158.08-41.75
					C155.71-44.1,153.24-46.34,150.69-48.49z"/>
				<path class="st2" d="M142.71-54.65L-25.13,113.19c1.95,2.75,3.99,5.41,6.16,7.98L150.69-48.49
					C148.12-50.65,145.45-52.7,142.71-54.65z"/>
				<path class="st2" d="M124.9-65.12L-35.6,95.38c1.5,3.16,3.15,6.23,4.92,9.22L134.12-60.2C131.13-61.97,128.06-63.62,124.9-65.12
					z"/>
				<path class="st2" d="M134.12-60.2L-30.68,104.6c1.73,2.95,3.59,5.8,5.56,8.58L142.71-54.65
					C139.93-56.62,137.07-58.47,134.12-60.2z"/>
				<path class="st2" d="M114.96-69.32L-39.8,85.44c1.25,3.39,2.66,6.7,4.2,9.94l160.5-160.5
					C121.66-66.66,118.35-68.07,114.96-69.32z"/>
				<path class="st2" d="M-38.97-0.22L29.3-68.49C-1.9-56.27-26.75-31.42-38.97-0.22z"/>
				<path class="st2" d="M29.3-68.49L-38.97-0.22c-2.52,6.44-4.53,13.13-5.92,20.05l94.24-94.24C42.43-73.02,35.73-71.01,29.3-68.49
					z"/>
				<path class="st2" d="M79.81-76.58L-47.06,50.29c0.23,4.32,0.71,8.57,1.38,12.75L92.56-75.2C88.38-75.88,84.13-76.35,79.81-76.58
					z"/>
				<path class="st2" d="M73.18-76.77c-2.55,0-5.07,0.11-7.58,0.26L-46.99,36.08c-0.16,2.51-0.26,5.03-0.26,7.58
					c0,2.22,0.07,4.43,0.19,6.63L79.81-76.58C77.61-76.7,75.4-76.77,73.18-76.77z"/>
				<path class="st2" d="M49.35-74.41l-94.24,94.24c-1.06,5.3-1.76,10.72-2.11,16.24L65.6-76.51
					C60.07-76.17,54.65-75.47,49.35-74.41z"/>
				<path class="st2" d="M191.89,23.42L52.94,162.37c4.16,0.7,8.38,1.2,12.67,1.47L193.35,36.09
					C193.09,31.8,192.59,27.58,191.89,23.42z"/>
				<path class="st2" d="M193.61,43.66c0-2.54-0.11-5.06-0.26-7.57L65.61,163.83c2.5,0.16,5.02,0.26,7.57,0.26
					c2.18,0,4.34-0.06,6.49-0.18L193.43,50.15C193.55,48,193.61,45.84,193.61,43.66z"/>
				<path class="st2" d="M193.43,50.15L79.67,163.91c5.48-0.29,10.85-0.97,16.11-1.97l95.69-95.69
					C192.46,61,193.14,55.63,193.43,50.15z"/>
				<path class="st2" d="M191.47,66.26l-95.69,95.69c6.75-1.28,13.31-3.12,19.62-5.48l70.59-70.59
					C188.35,79.57,190.18,73.01,191.47,66.26z"/>
				<path class="st2" d="M185.99,85.88l-70.59,70.59C147.94,144.28,173.8,118.42,185.99,85.88z"/>
				<path class="st2" d="M189.33,11.84L41.36,159.81c3.79,1.04,7.65,1.89,11.58,2.55L191.89,23.42
					C191.22,19.49,190.37,15.63,189.33,11.84z"/>
				<path class="st2" d="M171.07-26.45l-168,168c2.76,1.98,5.6,3.86,8.53,5.61L176.68-17.92C174.93-20.85,173.05-23.69,171.07-26.45
					z"/>
				<path class="st2" d="M164.86-34.39L-4.87,135.34c2.55,2.18,5.2,4.24,7.93,6.21l168-168C169.11-29.19,167.04-31.83,164.86-34.39z
					"/>
				<path class="st2" d="M185.87,1.16l-155.2,155.2c3.49,1.32,7.05,2.47,10.68,3.46L189.33,11.84
					C188.34,8.21,187.19,4.64,185.87,1.16z"/>
				<path class="st2" d="M158.08-41.75L-12.23,128.56c2.35,2.37,4.82,4.62,7.36,6.78L164.86-34.39
					C162.7-36.93,160.45-39.39,158.08-41.75z"/>
				<path class="st2" d="M181.64-8.75L20.77,152.12c3.22,1.56,6.53,2.96,9.9,4.24l155.2-155.2C184.6-2.22,183.2-5.53,181.64-8.75z"
					/>
				<path class="st2" d="M176.68-17.92L11.6,147.16c2.98,1.78,6.04,3.44,9.18,4.96L181.64-8.75
					C180.12-11.89,178.45-14.94,176.68-17.92z"/>
			</g>
			<g>
				<polygon class="st3" points="91.23,130.03 85.16,123.96 76.32,132.81 67.48,123.96 61.41,130.03 70.25,138.87 61.41,147.71 
					67.48,153.78 76.32,144.93 85.16,153.78 91.23,147.71 82.38,138.87 				"/>
				<polygon class="st4" points="91.23,185.28 85.16,179.22 76.32,188.06 67.48,179.22 61.41,185.28 70.25,194.13 61.41,202.97 
					67.48,209.03 76.32,200.19 85.16,209.03 91.23,202.97 82.38,194.13 				"/>
				<polygon class="st3" points="91.23,240.54 85.16,234.48 76.32,243.32 67.48,234.48 61.41,240.54 70.25,249.38 61.41,258.23 
					67.48,264.29 76.32,255.45 85.16,264.29 91.23,258.23 82.38,249.38 				"/>
			</g>
			<path class="st3" d="M225.33,383.02c-78.01,0-141.26,63.24-141.26,141.26c0,78.01,63.24,141.26,141.26,141.26
				c78.01,0,141.26-63.24,141.26-141.26C366.59,446.26,303.35,383.02,225.33,383.02z M225.33,637.3
				c-62.42,0-113.02-50.6-113.02-113.02s50.6-113.02,113.02-113.02c62.42,0,113.02,50.6,113.02,113.02S287.75,637.3,225.33,637.3z"
				/>
			<g>
				<g>
					<rect x="219.35" y="319.54" class="st2" width="3.97" height="3.97"/>
					<rect x="249.69" y="319.54" class="st2" width="3.97" height="3.97"/>
					<rect x="280.02" y="319.54" class="st2" width="3.97" height="3.97"/>
					<rect x="310.36" y="319.54" class="st2" width="3.97" height="3.97"/>
					<rect x="340.7" y="319.54" class="st2" width="3.97" height="3.97"/>
					<rect x="371.03" y="319.54" class="st2" width="3.97" height="3.97"/>
				</g>
				<g>
					<rect x="219.35" y="341.66" class="st2" width="3.97" height="3.97"/>
					<rect x="249.69" y="341.66" class="st5" width="3.97" height="3.97"/>
					<rect x="280.02" y="341.66" class="st2" width="3.97" height="3.97"/>
					<rect x="310.36" y="341.66" class="st2" width="3.97" height="3.97"/>
					<rect x="340.7" y="341.66" class="st2" width="3.97" height="3.97"/>
					<rect x="371.03" y="341.66" class="st2" width="3.97" height="3.97"/>
				</g>
				<g>
					<rect x="219.35" y="363.77" class="st2" width="3.97" height="3.97"/>
					<rect x="249.69" y="363.77" class="st2" width="3.97" height="3.97"/>
					<rect x="280.02" y="363.77" class="st2" width="3.97" height="3.97"/>
					<rect x="310.36" y="363.77" class="st5" width="3.97" height="3.97"/>
					<rect x="340.7" y="363.77" class="st2" width="3.97" height="3.97"/>
					<rect x="371.03" y="363.77" class="st2" width="3.97" height="3.97"/>
				</g>
				<g>
					<rect x="219.35" y="385.88" class="st2" width="3.97" height="3.97"/>
					<rect x="249.69" y="385.88" class="st2" width="3.97" height="3.97"/>
					<rect x="280.02" y="385.88" class="st2" width="3.97" height="3.97"/>
					<rect x="310.36" y="385.88" class="st2" width="3.97" height="3.97"/>
					<rect x="340.7" y="385.88" class="st2" width="3.97" height="3.97"/>
					<rect x="371.03" y="385.88" class="st2" width="3.97" height="3.97"/>
				</g>
				<g>
					<rect x="219.35" y="408" class="st2" width="3.97" height="3.97"/>
					<rect x="249.69" y="408" class="st0" width="3.97" height="3.97"/>
					<rect x="280.02" y="408" class="st0" width="3.97" height="3.97"/>
					<rect x="310.36" y="408" class="st2" width="3.97" height="3.97"/>
					<rect x="340.7" y="408" class="st5" width="3.97" height="3.97"/>
					<rect x="371.03" y="408" class="st2" width="3.97" height="3.97"/>
				</g>
				<g>
					<rect x="219.35" y="430.11" class="st2" width="3.97" height="3.97"/>
					<rect x="249.69" y="430.11" class="st2" width="3.97" height="3.97"/>
					<rect x="280.02" y="430.11" class="st2" width="3.97" height="3.97"/>
					<rect x="310.36" y="430.11" class="st0" width="3.97" height="3.97"/>
					<rect x="340.7" y="430.11" class="st2" width="3.97" height="3.97"/>
					<rect x="371.03" y="430.11" class="st2" width="3.97" height="3.97"/>
				</g>
				<g>
					<rect x="219.35" y="452.22" class="st2" width="3.97" height="3.97"/>
					<rect x="249.69" y="452.22" class="st2" width="3.97" height="3.97"/>
					<rect x="280.02" y="452.22" class="st2" width="3.97" height="3.97"/>
					<rect x="310.36" y="452.22" class="st2" width="3.97" height="3.97"/>
					<rect x="340.7" y="452.22" class="st0" width="3.97" height="3.97"/>
					<rect x="371.03" y="452.22" class="st2" width="3.97" height="3.97"/>
				</g>
			</g>
			<g>
				<path class="st6" d="M106.91,321.47l-212.07,212.07c-7.24,7.24-18.97,7.24-26.2,0l0,0c-7.24-7.24-7.24-18.97,0-26.2
					L80.71,295.27c7.24-7.24,18.97-7.24,26.2,0l0,0C114.15,302.5,114.15,314.24,106.91,321.47z"/>
				<path class="st6" d="M94,412.31L-67.87,574.18c-5.52,5.52-14.48,5.52-20,0l0,0c-5.52-5.52-5.52-14.48,0-20L74,392.3
					c5.52-5.52,14.48-5.52,20,0h0C99.52,397.83,99.52,406.78,94,412.31z"/>
			</g>
			<g>
				<polygon class="st3" points="241.47,60.35 224.32,50.45 224.32,70.25 				"/>
				<polygon class="st3" points="270.2,60.35 253.04,50.45 253.04,70.25 				"/>
				<polygon class="st4" points="298.92,60.35 281.77,50.45 281.77,70.25 				"/>
			</g>
			<g>
				<polygon class="st3" points="697.22,390.08 687.32,407.23 707.12,407.23 				"/>
				<polygon class="st3" points="697.22,361.35 687.32,378.51 707.12,378.51 				"/>
				<polygon class="st3" points="697.22,332.63 687.32,349.78 707.12,349.78 				"/>
				<polygon class="st4" points="697.22,245.93 691.48,255.88 702.97,255.88 				"/>
			</g>
			<g>
				<g>
					<line class="st7" x1="623.58" y1="447.42" x2="610" y2="461"/>
					<line class="st7" x1="630.19" y1="447.42" x2="616.61" y2="461"/>
					<line class="st7" x1="636.81" y1="447.42" x2="623.23" y2="461"/>
					<line class="st7" x1="643.43" y1="447.42" x2="629.85" y2="461"/>
					<line class="st7" x1="650.04" y1="447.42" x2="636.46" y2="461"/>
					<line class="st7" x1="656.66" y1="447.42" x2="643.08" y2="461"/>
					<line class="st7" x1="663.27" y1="447.42" x2="649.69" y2="461"/>
					<line class="st7" x1="669.89" y1="447.42" x2="656.31" y2="461"/>
					<line class="st7" x1="676.5" y1="447.42" x2="662.92" y2="461"/>
					<line class="st7" x1="683.12" y1="447.42" x2="669.54" y2="461"/>
					<line class="st7" x1="689.73" y1="447.42" x2="676.16" y2="461"/>
					<line class="st7" x1="696.35" y1="447.42" x2="682.77" y2="461"/>
					<line class="st7" x1="702.97" y1="447.42" x2="689.39" y2="461"/>
				</g>
			</g>
			<rect x="610" y="434.21" class="st4" width="59.89" height="5.02"/>
			<rect x="678" y="434.21" class="st3" width="24.97" height="5.02"/>
			<g>
				<g>
					<path class="st8" d="M670.76,38.46c0,1.15-0.94,2.09-2.09,2.09s-2.09-0.94-2.09-2.09c0-1.15,0.94-2.09,2.09-2.09
						S670.76,37.31,670.76,38.46z"/>
					<path class="st7" d="M686.08,38.46c0,1.15-0.94,2.09-2.09,2.09s-2.09-0.94-2.09-2.09c0-1.15,0.94-2.09,2.09-2.09
						S686.08,37.31,686.08,38.46z"/>
					<path class="st7" d="M701.4,38.46c0,1.15-0.94,2.09-2.09,2.09c-1.15,0-2.09-0.94-2.09-2.09c0-1.15,0.94-2.09,2.09-2.09
						C700.46,36.37,701.4,37.31,701.4,38.46z"/>
				</g>
				<g>
					<circle class="st7" cx="653.35" cy="51.69" r="2.09"/>
					<path class="st7" d="M670.76,51.69c0,1.15-0.94,2.09-2.09,2.09s-2.09-0.94-2.09-2.09s0.94-2.09,2.09-2.09
						S670.76,50.54,670.76,51.69z"/>
					<path class="st7" d="M686.08,51.69c0,1.15-0.94,2.09-2.09,2.09s-2.09-0.94-2.09-2.09s0.94-2.09,2.09-2.09
						S686.08,50.54,686.08,51.69z"/>
					<path class="st9" d="M686.08,63.99c0,1.15-0.94,2.09-2.09,2.09s-2.09-0.94-2.09-2.09s0.94-2.09,2.09-2.09
						S686.08,62.84,686.08,63.99z"/>
				</g>
			</g>
			<g>
				<g>
					<g>
						<line class="st10" x1="595.16" y1="87.62" x2="595.16" y2="98.58"/>
						<line class="st10" x1="589.68" y1="93.1" x2="600.64" y2="93.1"/>
					</g>
					<g>
						<line class="st10" x1="625.01" y1="87.62" x2="625.01" y2="98.58"/>
						<line class="st10" x1="619.54" y1="93.1" x2="630.49" y2="93.1"/>
					</g>
					<g>
						<line class="st10" x1="654.87" y1="87.62" x2="654.87" y2="98.58"/>
						<line class="st10" x1="649.39" y1="93.1" x2="660.35" y2="93.1"/>
					</g>
					<g>
						<line class="st10" x1="684.73" y1="87.62" x2="684.73" y2="98.58"/>
						<line class="st10" x1="679.25" y1="93.1" x2="690.21" y2="93.1"/>
					</g>
				</g>
				<g>
					<g>
						<line class="st10" x1="595.16" y1="110.36" x2="595.16" y2="121.31"/>
						<line class="st10" x1="589.68" y1="115.84" x2="600.64" y2="115.84"/>
					</g>
					<g>
						<line class="st10" x1="625.01" y1="110.36" x2="625.01" y2="121.31"/>
						<line class="st10" x1="619.54" y1="115.84" x2="630.49" y2="115.84"/>
					</g>
					<g>
						<line class="st10" x1="654.87" y1="110.36" x2="654.87" y2="121.31"/>
						<line class="st10" x1="649.39" y1="115.84" x2="660.35" y2="115.84"/>
					</g>
					<g>
						<line class="st10" x1="684.73" y1="110.36" x2="684.73" y2="121.31"/>
						<line class="st10" x1="679.25" y1="115.84" x2="690.21" y2="115.84"/>
					</g>
				</g>
				<g>
					<g>
						<line class="st10" x1="595.16" y1="133.09" x2="595.16" y2="144.05"/>
						<line class="st10" x1="589.68" y1="138.57" x2="600.64" y2="138.57"/>
					</g>
					<g>
						<line class="st10" x1="625.01" y1="133.09" x2="625.01" y2="144.05"/>
						<line class="st10" x1="619.54" y1="138.57" x2="630.49" y2="138.57"/>
					</g>
					<g>
						<line class="st10" x1="654.87" y1="133.09" x2="654.87" y2="144.05"/>
						<line class="st10" x1="649.39" y1="138.57" x2="660.35" y2="138.57"/>
					</g>
					<g>
						<line class="st10" x1="684.73" y1="133.09" x2="684.73" y2="144.05"/>
						<line class="st10" x1="679.25" y1="138.57" x2="690.21" y2="138.57"/>
					</g>
				</g>
				<g>
					<g>
						<line class="st10" x1="595.16" y1="155.83" x2="595.16" y2="166.79"/>
						<line class="st10" x1="589.68" y1="161.31" x2="600.64" y2="161.31"/>
					</g>
					<g>
						<line class="st10" x1="625.01" y1="155.83" x2="625.01" y2="166.79"/>
						<line class="st10" x1="619.54" y1="161.31" x2="630.49" y2="161.31"/>
					</g>
					<g>
						<line class="st10" x1="654.87" y1="155.83" x2="654.87" y2="166.79"/>
						<line class="st10" x1="649.39" y1="161.31" x2="660.35" y2="161.31"/>
					</g>
					<g>
						<line class="st10" x1="684.73" y1="155.83" x2="684.73" y2="166.79"/>
						<line class="st10" x1="679.25" y1="161.31" x2="690.21" y2="161.31"/>
					</g>
				</g>
			</g>
			<g>
				<path class="st11" d="M600.63,220.15c-51.09-18.97-90.44-62.12-104.14-115.55"/>
				<path class="st12" d="M724.64,217.28c-20.15,8.57-42.33,13.31-65.61,13.31c-9.73,0-19.27-0.83-28.54-2.42"/>
				<path class="st12" d="M493.36,36.09c12.79-79.97,82.1-141.08,165.67-141.08c92.67,0,167.79,75.12,167.79,167.79
					c0,69.39-42.12,128.93-102.18,154.48"/>
			</g>
			<path class="st12" d="M630.49,226.48c0,2.44-1.98,4.42-4.42,4.42s-4.42-1.98-4.42-4.42c0-2.44,1.98-4.42,4.42-4.42
				S630.49,224.04,630.49,226.48z"/>
			<rect x="422.71" y="36.61" class="st11" width="121.49" height="10.19"/>
			<g>
				<g>
					<g>
						
							<rect x="242.8" y="-12.99" transform="matrix(0.7071 -0.7071 0.7071 0.7071 79.4164 170)" class="st13" width="4.25" height="4.25"/>
						
							<rect x="254.82" y="-0.96" transform="matrix(0.7071 -0.7071 0.7071 0.7071 74.4789 181.9196)" class="st13" width="4.03" height="4.03"/>
						
							<rect x="266.85" y="11.07" transform="matrix(0.7071 -0.7071 0.7071 0.7071 69.5401 193.8376)" class="st13" width="3.82" height="3.82"/>
						
							<rect x="278.88" y="23.09" transform="matrix(0.7071 -0.7071 0.7071 0.7071 64.6026 205.7569)" class="st13" width="3.6" height="3.6"/>
						
							<rect x="290.91" y="35.12" transform="matrix(0.7071 -0.7071 0.7071 0.7071 59.665 217.676)" class="st13" width="3.38" height="3.38"/>
						
							<rect x="302.93" y="47.15" transform="matrix(0.7071 -0.7071 0.7071 0.7071 54.7314 229.6007)" class="st13" width="3.17" height="3.17"/>
						
							<rect x="314.96" y="59.18" transform="matrix(0.7071 -0.7071 0.7071 0.7071 49.7941 241.5205)" class="st13" width="2.95" height="2.95"/>
						
							<rect x="326.99" y="71.21" transform="matrix(0.7071 -0.7071 0.7071 0.7071 44.8567 253.4403)" class="st13" width="2.73" height="2.73"/>
						
							<rect x="339.02" y="83.23" transform="matrix(0.7071 -0.7071 0.7071 0.7071 39.9194 265.3601)" class="st13" width="2.52" height="2.52"/>
						
							<rect x="351.05" y="95.26" transform="matrix(0.7071 -0.7071 0.7071 0.7071 34.982 277.2799)" class="st13" width="2.3" height="2.3"/>
						
							<rect x="363.07" y="107.29" transform="matrix(0.7071 -0.7071 0.7071 0.7071 30.0447 289.1997)" class="st13" width="2.09" height="2.09"/>
						
							<rect x="375.1" y="119.32" transform="matrix(0.7071 -0.7071 0.7071 0.7071 25.1074 301.1195)" class="st13" width="1.87" height="1.87"/>
					</g>
				</g>
				<g>
					<g>
						
							<rect x="252.45" y="-22.65" transform="matrix(0.7071 -0.7071 0.7071 0.7071 89.0755 174.0018)" class="st13" width="4.25" height="4.25"/>
						
							<rect x="264.48" y="-10.62" transform="matrix(0.7071 -0.7071 0.7071 0.7071 84.1363 185.9199)" class="st13" width="4.03" height="4.03"/>
						
							<rect x="276.51" y="1.41" transform="matrix(0.7071 -0.7071 0.7071 0.7071 79.2007 197.8412)" class="st13" width="3.82" height="3.82"/>
						
							<rect x="288.54" y="13.44" transform="matrix(0.7071 -0.7071 0.7071 0.7071 74.2637 209.7614)" class="st13" width="3.6" height="3.6"/>
						
							<rect x="300.56" y="25.46" transform="matrix(0.7071 -0.7071 0.7071 0.7071 69.326 221.6809)" class="st13" width="3.38" height="3.38"/>
						
							<rect x="312.59" y="37.49" transform="matrix(0.7071 -0.7071 0.7071 0.7071 64.389 233.601)" class="st13" width="3.17" height="3.17"/>
						
							<rect x="324.62" y="49.52" transform="matrix(0.7071 -0.7071 0.7071 0.7071 59.4517 245.5208)" class="st13" width="2.95" height="2.95"/>
						
							<rect x="336.65" y="61.55" transform="matrix(0.7071 -0.7071 0.7071 0.7071 54.5143 257.4406)" class="st13" width="2.73" height="2.73"/>
						
							<rect x="348.68" y="73.58" transform="matrix(0.7071 -0.7071 0.7071 0.7071 49.5715 269.352)" class="st13" width="2.52" height="2.52"/>
						
							<rect x="360.7" y="85.6" transform="matrix(0.7071 -0.7071 0.7071 0.7071 44.6396 281.2802)" class="st13" width="2.3" height="2.3"/>
						
							<rect x="372.73" y="97.63" transform="matrix(0.7071 -0.7071 0.7071 0.7071 39.6957 293.1887)" class="st13" width="2.09" height="2.09"/>
						
							<rect x="384.76" y="109.66" transform="matrix(0.7071 -0.7071 0.7071 0.7071 34.765 305.1198)" class="st13" width="1.87" height="1.87"/>
					</g>
				</g>
				<g>
					<g>
						
							<rect x="262.11" y="-32.3" transform="matrix(0.7071 -0.7071 0.7071 0.7071 98.7298 177.9995)" class="st13" width="4.25" height="4.25"/>
						
							<rect x="274.14" y="-20.28" transform="matrix(0.7071 -0.7071 0.7071 0.7071 93.796 189.9221)" class="st13" width="4.03" height="4.03"/>
						
							<rect x="286.17" y="-8.25" transform="matrix(0.7071 -0.7071 0.7071 0.7071 88.8583 201.8416)" class="st13" width="3.82" height="3.82"/>
						
							<rect x="298.19" y="3.78" transform="matrix(0.7071 -0.7071 0.7071 0.7071 83.9189 213.7592)" class="st13" width="3.6" height="3.6"/>
						
							<rect x="310.22" y="15.81" transform="matrix(0.7071 -0.7071 0.7071 0.7071 78.984 225.6815)" class="st13" width="3.38" height="3.38"/>
						
							<rect x="322.25" y="27.84" transform="matrix(0.7071 -0.7071 0.7071 0.7071 74.0466 237.6013)" class="st13" width="3.17" height="3.17"/>
						
							<rect x="334.28" y="39.86" transform="matrix(0.7071 -0.7071 0.7071 0.7071 69.1093 249.5211)" class="st13" width="2.95" height="2.95"/>
						
							<rect x="346.31" y="51.89" transform="matrix(0.7071 -0.7071 0.7071 0.7071 64.1719 261.4409)" class="st13" width="2.73" height="2.73"/>
						
							<rect x="358.33" y="63.92" transform="matrix(0.7071 -0.7071 0.7071 0.7071 59.2346 273.3607)" class="st13" width="2.52" height="2.52"/>
						
							<rect x="370.36" y="75.95" transform="matrix(0.7071 -0.7071 0.7071 0.7071 54.2973 285.2805)" class="st13" width="2.3" height="2.3"/>
						
							<rect x="382.39" y="87.97" transform="matrix(0.7071 -0.7071 0.7071 0.7071 49.3528 297.189)" class="st13" width="2.09" height="2.09"/>
						
							<rect x="394.42" y="100" transform="matrix(0.7071 -0.7071 0.7071 0.7071 44.4226 309.1201)" class="st13" width="1.87" height="1.87"/>
					</g>
				</g>
				<g>
					<g>
						
							<rect x="271.77" y="-41.96" transform="matrix(0.7071 -0.7071 0.7071 0.7071 108.3946 182.0054)" class="st13" width="4.25" height="4.25"/>
						
							<rect x="283.8" y="-29.93" transform="matrix(0.7071 -0.7071 0.7071 0.7071 103.4575 193.9256)" class="st13" width="4.03" height="4.03"/>
						
							<rect x="295.82" y="-17.91" transform="matrix(0.7071 -0.7071 0.7071 0.7071 98.5204 205.8459)" class="st13" width="3.82" height="3.82"/>
						
							<rect x="307.85" y="-5.88" transform="matrix(0.7071 -0.7071 0.7071 0.7071 93.578 217.7612)" class="st13" width="3.6" height="3.6"/>
						
							<rect x="319.88" y="6.15" transform="matrix(0.7071 -0.7071 0.7071 0.7071 88.6406 229.6809)" class="st13" width="3.38" height="3.38"/>
						
							<rect x="331.91" y="18.18" transform="matrix(0.7071 -0.7071 0.7071 0.7071 83.7038 241.6012)" class="st13" width="3.17" height="3.17"/>
						
							<rect x="343.94" y="30.21" transform="matrix(0.7071 -0.7071 0.7071 0.7071 78.7669 253.5214)" class="st13" width="2.95" height="2.95"/>
						
							<rect x="355.96" y="42.23" transform="matrix(0.7071 -0.7071 0.7071 0.7071 73.8295 265.4412)" class="st13" width="2.73" height="2.73"/>
						
							<rect x="367.99" y="54.26" transform="matrix(0.7071 -0.7071 0.7071 0.7071 68.8922 277.3611)" class="st13" width="2.52" height="2.52"/>
						
							<rect x="380.02" y="66.29" transform="matrix(0.7071 -0.7071 0.7071 0.7071 63.9542 289.2799)" class="st13" width="2.3" height="2.3"/>
						
							<rect x="392.05" y="78.32" transform="matrix(0.7071 -0.7071 0.7071 0.7071 59.025 301.212)" class="st13" width="2.09" height="2.09"/>
						
							<rect x="404.08" y="90.35" transform="matrix(0.7071 -0.7071 0.7071 0.7071 54.081 313.1219)" class="st13" width="1.87" height="1.87"/>
					</g>
				</g>
				<g>
					<g>
						
							<rect x="281.43" y="-51.62" transform="matrix(0.7071 -0.7071 0.7071 0.7071 118.0525 186.0057)" class="st13" width="4.25" height="4.25"/>
						
							<rect x="293.45" y="-39.59" transform="matrix(0.7071 -0.7071 0.7071 0.7071 113.1153 197.9259)" class="st13" width="4.03" height="4.03"/>
						
							<rect x="305.48" y="-27.56" transform="matrix(0.7071 -0.7071 0.7071 0.7071 108.1782 209.8462)" class="st13" width="3.82" height="3.82"/>
						
							<rect x="317.51" y="-15.54" transform="matrix(0.7071 -0.7071 0.7071 0.7071 103.2408 221.7662)" class="st13" width="3.6" height="3.6"/>
						
							<rect x="329.54" y="-3.51" transform="matrix(0.7071 -0.7071 0.7071 0.7071 98.3007 233.6837)" class="st13" width="3.38" height="3.38"/>
						
							<rect x="341.57" y="8.52" transform="matrix(0.7071 -0.7071 0.7071 0.7071 93.3671 245.6075)" class="st13" width="3.17" height="3.17"/>
						
							<rect x="353.59" y="20.55" transform="matrix(0.7071 -0.7071 0.7071 0.7071 88.4301 257.5281)" class="st13" width="2.95" height="2.95"/>
						
							<rect x="365.62" y="32.58" transform="matrix(0.7071 -0.7071 0.7071 0.7071 83.4871 269.4415)" class="st13" width="2.73" height="2.73"/>
						
							<rect x="377.65" y="44.6" transform="matrix(0.7071 -0.7071 0.7071 0.7071 78.5564 281.3698)" class="st13" width="2.52" height="2.52"/>
						
							<rect x="389.68" y="56.63" transform="matrix(0.7071 -0.7071 0.7071 0.7071 73.6125 293.2811)" class="st13" width="2.3" height="2.3"/>
						
							<rect x="401.71" y="68.66" transform="matrix(0.7071 -0.7071 0.7071 0.7071 68.6831 305.2123)" class="st13" width="2.09" height="2.09"/>
						
							<rect x="413.73" y="80.69" transform="matrix(0.7071 -0.7071 0.7071 0.7071 63.7378 317.1207)" class="st13" width="1.87" height="1.87"/>
					</g>
				</g>
				<g>
					<g>
						
							<rect x="291.08" y="-61.28" transform="matrix(0.7071 -0.7071 0.7071 0.7071 127.7103 190.006)" class="st13" width="4.25" height="4.25"/>
						
							<rect x="303.11" y="-49.25" transform="matrix(0.7071 -0.7071 0.7071 0.7071 122.7732 201.9262)" class="st13" width="4.03" height="4.03"/>
						
							<rect x="315.14" y="-37.22" transform="matrix(0.7071 -0.7071 0.7071 0.7071 117.8361 213.8465)" class="st13" width="3.82" height="3.82"/>
						
							<rect x="327.17" y="-25.19" transform="matrix(0.7071 -0.7071 0.7071 0.7071 112.899 225.7669)" class="st13" width="3.6" height="3.6"/>
						
							<rect x="339.2" y="-13.17" transform="matrix(0.7071 -0.7071 0.7071 0.7071 107.9594 237.6849)" class="st13" width="3.38" height="3.38"/>
						
							<rect x="351.22" y="-1.14" transform="matrix(0.7071 -0.7071 0.7071 0.7071 103.0253 249.6081)" class="st13" width="3.17" height="3.17"/>
						
							<rect x="363.25" y="10.89" transform="matrix(0.7071 -0.7071 0.7071 0.7071 98.0821 261.5221)" class="st13" width="2.95" height="2.95"/>
						
							<rect x="375.28" y="22.92" transform="matrix(0.7071 -0.7071 0.7071 0.7071 93.1512 273.4492)" class="st13" width="2.73" height="2.73"/>
						
							<rect x="387.31" y="34.95" transform="matrix(0.7071 -0.7071 0.7071 0.7071 88.2074 285.3617)" class="st13" width="2.52" height="2.52"/>
						
							<rect x="399.33" y="46.97" transform="matrix(0.7071 -0.7071 0.7071 0.7071 83.2701 297.2815)" class="st13" width="2.3" height="2.3"/>
						
							<rect x="411.36" y="59" transform="matrix(0.7071 -0.7071 0.7071 0.7071 78.3327 309.2013)" class="st13" width="2.09" height="2.09"/>
						
							<rect x="423.39" y="71.03" transform="matrix(0.7071 -0.7071 0.7071 0.7071 73.3954 321.1211)" class="st13" width="1.87" height="1.87"/>
					</g>
				</g>
				<g>
					<g>
						
							<rect x="300.74" y="-70.94" transform="matrix(0.7071 -0.7071 0.7071 0.7071 137.3591 194.0006)" class="st13" width="4.25" height="4.25"/>
						
							<rect x="312.77" y="-58.91" transform="matrix(0.7071 -0.7071 0.7071 0.7071 132.4218 205.9202)" class="st13" width="4.03" height="4.03"/>
						
							<rect x="324.8" y="-46.88" transform="matrix(0.7071 -0.7071 0.7071 0.7071 127.4842 217.8395)" class="st13" width="3.82" height="3.82"/>
						
							<rect x="336.82" y="-34.85" transform="matrix(0.7071 -0.7071 0.7071 0.7071 122.5466 229.7587)" class="st13" width="3.6" height="3.6"/>
						
							<rect x="348.85" y="-22.82" transform="matrix(0.7071 -0.7071 0.7071 0.7071 117.6084 241.6775)" class="st13" width="3.38" height="3.38"/>
						
							<rect x="360.88" y="-10.8" transform="matrix(0.7071 -0.7071 0.7071 0.7071 112.6735 253.5992)" class="st13" width="3.17" height="3.17"/>
						
							<rect x="372.91" y="1.23" transform="matrix(0.7071 -0.7071 0.7071 0.7071 107.7391 265.5217)" class="st13" width="2.95" height="2.95"/>
						
							<rect x="384.94" y="13.26" transform="matrix(0.7071 -0.7071 0.7071 0.7071 102.8023 277.4422)" class="st13" width="2.73" height="2.73"/>
						
							<rect x="396.96" y="25.29" transform="matrix(0.7071 -0.7071 0.7071 0.7071 97.8642 289.3611)" class="st13" width="2.52" height="2.52"/>
						
							<rect x="408.99" y="37.32" transform="matrix(0.7071 -0.7071 0.7071 0.7071 92.9276 301.2818)" class="st13" width="2.3" height="2.3"/>
						
							<rect x="421.02" y="49.34" transform="matrix(0.7071 -0.7071 0.7071 0.7071 87.9903 313.2016)" class="st13" width="2.09" height="2.09"/>
						
							<rect x="433.05" y="61.37" transform="matrix(0.7071 -0.7071 0.7071 0.7071 83.053 325.1214)" class="st13" width="1.87" height="1.87"/>
					</g>
				</g>
				<g>
					<g>
						
							<rect x="310.4" y="-80.59" transform="matrix(0.7071 -0.7071 0.7071 0.7071 147.0167 198.0011)" class="st13" width="4.25" height="4.25"/>
						
							<rect x="322.43" y="-68.56" transform="matrix(0.7071 -0.7071 0.7071 0.7071 142.084 209.9237)" class="st13" width="4.03" height="4.03"/>
						
							<rect x="334.45" y="-56.54" transform="matrix(0.7071 -0.7071 0.7071 0.7071 137.1466 221.8435)" class="st13" width="3.82" height="3.82"/>
						
							<rect x="346.48" y="-44.51" transform="matrix(0.7071 -0.7071 0.7071 0.7071 132.2093 233.7633)" class="st13" width="3.6" height="3.6"/>
						
							<rect x="358.51" y="-32.48" transform="matrix(0.7071 -0.7071 0.7071 0.7071 127.2719 245.6831)" class="st13" width="3.38" height="3.38"/>
						
							<rect x="370.54" y="-20.45" transform="matrix(0.7071 -0.7071 0.7071 0.7071 122.3346 257.6029)" class="st13" width="3.17" height="3.17"/>
						
							<rect x="382.57" y="-8.42" transform="matrix(0.7071 -0.7071 0.7071 0.7071 117.396 269.5214)" class="st13" width="2.95" height="2.95"/>
						
							<rect x="394.59" y="3.6" transform="matrix(0.7071 -0.7071 0.7071 0.7071 112.4549 281.4373)" class="st13" width="2.73" height="2.73"/>
						
							<rect x="406.62" y="15.63" transform="matrix(0.7071 -0.7071 0.7071 0.7071 107.5226 293.3623)" class="st13" width="2.52" height="2.52"/>
						
							<rect x="418.65" y="27.66" transform="matrix(0.7071 -0.7071 0.7071 0.7071 102.5852 305.2821)" class="st13" width="2.3" height="2.3"/>
						
							<rect x="430.68" y="39.69" transform="matrix(0.7071 -0.7071 0.7071 0.7071 97.6479 317.2019)" class="st13" width="2.09" height="2.09"/>
						
							<rect x="442.71" y="51.71" transform="matrix(0.7071 -0.7071 0.7071 0.7071 92.7106 329.1217)" class="st13" width="1.87" height="1.87"/>
					</g>
				</g>
				<g>
					<g>
						
							<rect x="320.06" y="-90.25" transform="matrix(0.7071 -0.7071 0.7071 0.7071 156.6745 202.0016)" class="st13" width="4.25" height="4.25"/>
						
							<rect x="332.08" y="-78.22" transform="matrix(0.7071 -0.7071 0.7071 0.7071 151.7416 213.9239)" class="st13" width="4.03" height="4.03"/>
						
							<rect x="344.11" y="-66.19" transform="matrix(0.7071 -0.7071 0.7071 0.7071 146.7988 225.8401)" class="st13" width="3.82" height="3.82"/>
						
							<rect x="356.14" y="-54.17" transform="matrix(0.7071 -0.7071 0.7071 0.7071 141.8669 237.7635)" class="st13" width="3.6" height="3.6"/>
						
							<rect x="368.17" y="-42.14" transform="matrix(0.7071 -0.7071 0.7071 0.7071 136.9296 249.6834)" class="st13" width="3.38" height="3.38"/>
						
							<rect x="380.2" y="-30.11" transform="matrix(0.7071 -0.7071 0.7071 0.7071 131.9916 261.6027)" class="st13" width="3.17" height="3.17"/>
						
							<rect x="392.22" y="-18.08" transform="matrix(0.7071 -0.7071 0.7071 0.7071 127.0549 273.523)" class="st13" width="2.95" height="2.95"/>
						
							<rect x="404.25" y="-6.05" transform="matrix(0.7071 -0.7071 0.7071 0.7071 122.1123 285.4377)" class="st13" width="2.73" height="2.73"/>
						
							<rect x="416.28" y="5.97" transform="matrix(0.7071 -0.7071 0.7071 0.7071 117.1786 297.3609)" class="st13" width="2.52" height="2.52"/>
						
							<rect x="428.31" y="18" transform="matrix(0.7071 -0.7071 0.7071 0.7071 112.2419 309.2813)" class="st13" width="2.3" height="2.3"/>
						
							<rect x="440.34" y="30.03" transform="matrix(0.7071 -0.7071 0.7071 0.7071 107.3055 321.2022)" class="st13" width="2.09" height="2.09"/>
						
							<rect x="452.36" y="42.06" transform="matrix(0.7071 -0.7071 0.7071 0.7071 102.3682 333.122)" class="st13" width="1.87" height="1.87"/>
					</g>
				</g>
				<g>
					<g>
						
							<rect x="329.71" y="-99.91" transform="matrix(0.7071 -0.7071 0.7071 0.7071 166.3416 206.0072)" class="st13" width="4.25" height="4.25"/>
						
							<rect x="341.74" y="-87.88" transform="matrix(0.7071 -0.7071 0.7071 0.7071 161.4045 217.9275)" class="st13" width="4.03" height="4.03"/>
						
							<rect x="353.77" y="-75.85" transform="matrix(0.7071 -0.7071 0.7071 0.7071 156.4675 229.8478)" class="st13" width="3.82" height="3.82"/>
						
							<rect x="365.8" y="-63.82" transform="matrix(0.7071 -0.7071 0.7071 0.7071 151.5299 241.7677)" class="st13" width="3.6" height="3.6"/>
						
							<rect x="377.83" y="-51.8" transform="matrix(0.7071 -0.7071 0.7071 0.7071 146.5872 253.6837)" class="st13" width="3.38" height="3.38"/>
						
							<rect x="389.85" y="-39.77" transform="matrix(0.7071 -0.7071 0.7071 0.7071 141.6566 265.609)" class="st13" width="3.17" height="3.17"/>
						
							<rect x="401.88" y="-27.74" transform="matrix(0.7071 -0.7071 0.7071 0.7071 136.7125 277.5233)" class="st13" width="2.95" height="2.95"/>
						
							<rect x="413.91" y="-15.71" transform="matrix(0.7071 -0.7071 0.7071 0.7071 131.7751 289.4431)" class="st13" width="2.73" height="2.73"/>
						
							<rect x="425.94" y="-3.68" transform="matrix(0.7071 -0.7071 0.7071 0.7071 126.8386 301.3636)" class="st13" width="2.52" height="2.52"/>
						
							<rect x="437.97" y="8.34" transform="matrix(0.7071 -0.7071 0.7071 0.7071 121.8995 313.2817)" class="st13" width="2.3" height="2.3"/>
						
							<rect x="449.99" y="20.37" transform="matrix(0.7071 -0.7071 0.7071 0.7071 116.9631 325.2025)" class="st13" width="2.09" height="2.09"/>
						
							<rect x="462.02" y="32.4" transform="matrix(0.7071 -0.7071 0.7071 0.7071 112.0143 337.109)" class="st13" width="1.87" height="1.87"/>
					</g>
				</g>
				<g>
					<g>
						
							<rect x="339.37" y="-109.57" transform="matrix(0.7071 -0.7071 0.7071 0.7071 175.9994 210.0075)" class="st13" width="4.25" height="4.25"/>
						
							<rect x="351.4" y="-97.54" transform="matrix(0.7071 -0.7071 0.7071 0.7071 171.0624 221.9278)" class="st13" width="4.03" height="4.03"/>
						
							<rect x="363.43" y="-85.51" transform="matrix(0.7071 -0.7071 0.7071 0.7071 166.1253 233.8481)" class="st13" width="3.82" height="3.82"/>
						
							<rect x="375.46" y="-73.48" transform="matrix(0.7071 -0.7071 0.7071 0.7071 161.1883 245.7684)" class="st13" width="3.6" height="3.6"/>
						
							<rect x="387.48" y="-61.45" transform="matrix(0.7071 -0.7071 0.7071 0.7071 156.2514 257.6888)" class="st13" width="3.38" height="3.38"/>
						
							<rect x="399.51" y="-49.43" transform="matrix(0.7071 -0.7071 0.7071 0.7071 151.3145 269.6093)" class="st13" width="3.17" height="3.17"/>
						
							<rect x="411.54" y="-37.4" transform="matrix(0.7071 -0.7071 0.7071 0.7071 146.3777 281.53)" class="st13" width="2.95" height="2.95"/>
						
							<rect x="423.57" y="-25.37" transform="matrix(0.7071 -0.7071 0.7071 0.7071 141.4409 293.4507)" class="st13" width="2.73" height="2.73"/>
						
							<rect x="435.59" y="-13.34" transform="matrix(0.7071 -0.7071 0.7071 0.7071 136.5043 305.3716)" class="st13" width="2.52" height="2.52"/>
						
							<rect x="447.62" y="-1.31" transform="matrix(0.7071 -0.7071 0.7071 0.7071 131.558 317.2829)" class="st13" width="2.3" height="2.3"/>
						
							<rect x="459.65" y="10.71" transform="matrix(0.7071 -0.7071 0.7071 0.7071 126.6315 329.2141)" class="st13" width="2.09" height="2.09"/>
						
							<rect x="471.68" y="22.74" transform="matrix(0.7071 -0.7071 0.7071 0.7071 121.6834 341.1226)" class="st13" width="1.87" height="1.87"/>
					</g>
				</g>
				<g>
					<g>
						
							<rect x="349.03" y="-119.22" transform="matrix(0.7071 -0.7071 0.7071 0.7071 185.6628 214.0106)" class="st13" width="4.25" height="4.25"/>
						
							<rect x="361.06" y="-107.2" transform="matrix(0.7071 -0.7071 0.7071 0.7071 180.7202 225.9281)" class="st13" width="4.03" height="4.03"/>
						
							<rect x="373.08" y="-95.17" transform="matrix(0.7071 -0.7071 0.7071 0.7071 175.7832 237.8484)" class="st13" width="3.82" height="3.82"/>
						
							<rect x="385.11" y="-83.14" transform="matrix(0.7071 -0.7071 0.7071 0.7071 170.8462 249.7687)" class="st13" width="3.6" height="3.6"/>
						
							<rect x="397.14" y="-71.11" transform="matrix(0.7071 -0.7071 0.7071 0.7071 165.9017 261.6838)" class="st13" width="3.38" height="3.38"/>
						
							<rect x="409.17" y="-59.08" transform="matrix(0.7071 -0.7071 0.7071 0.7071 160.9724 273.6097)" class="st13" width="3.17" height="3.17"/>
						
							<rect x="421.2" y="-47.06" transform="matrix(0.7071 -0.7071 0.7071 0.7071 156.0277 285.5239)" class="st13" width="2.95" height="2.95"/>
						
							<rect x="433.22" y="-35.03" transform="matrix(0.7071 -0.7071 0.7071 0.7071 151.0989 297.451)" class="st13" width="2.73" height="2.73"/>
						
							<rect x="445.25" y="-23" transform="matrix(0.7071 -0.7071 0.7071 0.7071 146.1519 309.3626)" class="st13" width="2.52" height="2.52"/>
						
							<rect x="457.28" y="-10.97" transform="matrix(0.7071 -0.7071 0.7071 0.7071 141.2258 321.2931)" class="st13" width="2.3" height="2.3"/>
						
							<rect x="469.31" y="1.06" transform="matrix(0.7071 -0.7071 0.7071 0.7071 136.2839 333.2088)" class="st13" width="2.09" height="2.09"/>
						
							<rect x="481.34" y="13.08" transform="matrix(0.7071 -0.7071 0.7071 0.7071 131.3535 345.1362)" class="st13" width="1.87" height="1.87"/>
					</g>
				</g>
			</g>
			<g>
				<g>
					<g>
						
							<rect x="641.91" y="507.26" transform="matrix(0.7071 -0.7071 0.7071 0.7071 -171.5563 604.5788)" class="st13" width="4.25" height="4.25"/>
						
							<rect x="630.09" y="495.45" transform="matrix(0.7071 -0.7071 0.7071 0.7071 -166.6173 592.6726)" class="st13" width="4.03" height="4.03"/>
						
							<rect x="618.28" y="483.63" transform="matrix(0.7071 -0.7071 0.7071 0.7071 -161.68 580.7527)" class="st13" width="3.82" height="3.82"/>
						
							<rect x="606.47" y="471.82" transform="matrix(0.7071 -0.7071 0.7071 0.7071 -156.7408 568.848)" class="st13" width="3.6" height="3.6"/>
						
							<rect x="594.66" y="460.01" transform="matrix(0.7071 -0.7071 0.7071 0.7071 -151.8056 556.9108)" class="st13" width="3.38" height="3.38"/>
						
							<rect x="582.85" y="448.2" transform="matrix(0.7071 -0.7071 0.7071 0.7071 -146.8658 545.0097)" class="st13" width="3.17" height="3.17"/>
						
							<rect x="571.04" y="436.39" transform="matrix(0.7071 -0.7071 0.7071 0.7071 -141.9306 533.0735)" class="st13" width="2.95" height="2.95"/>
						
							<rect x="559.22" y="424.58" transform="matrix(0.7071 -0.7071 0.7071 0.7071 -136.9908 521.1718)" class="st13" width="2.73" height="2.73"/>
						
							<rect x="547.41" y="412.76" transform="matrix(0.7071 -0.7071 0.7071 0.7071 -132.0559 509.2339)" class="st13" width="2.52" height="2.52"/>
						
							<rect x="535.6" y="400.95" transform="matrix(0.7071 -0.7071 0.7071 0.7071 -127.1161 497.3318)" class="st13" width="2.3" height="2.3"/>
						
							<rect x="523.79" y="389.14" transform="matrix(0.7071 -0.7071 0.7071 0.7071 -122.1813 485.3943)" class="st13" width="2.09" height="2.09"/>
						
							<rect x="511.98" y="377.33" transform="matrix(0.7071 -0.7071 0.7071 0.7071 -117.2403 473.4984)" class="st13" width="1.87" height="1.87"/>
					</g>
				</g>
				<g>
					<g>
						
							<rect x="632.25" y="516.91" transform="matrix(0.7071 -0.7071 0.7071 0.7071 -181.2136 600.5785)" class="st13" width="4.25" height="4.25"/>
						
							<rect x="620.44" y="505.1" transform="matrix(0.7071 -0.7071 0.7071 0.7071 -176.2749 588.6723)" class="st13" width="4.03" height="4.03"/>
						
							<rect x="608.63" y="493.29" transform="matrix(0.7071 -0.7071 0.7071 0.7071 -171.3389 576.7402)" class="st13" width="3.82" height="3.82"/>
						
							<rect x="596.81" y="481.48" transform="matrix(0.7071 -0.7071 0.7071 0.7071 -166.4002 564.8327)" class="st13" width="3.6" height="3.6"/>
						
							<rect x="585" y="469.67" transform="matrix(0.7071 -0.7071 0.7071 0.7071 -161.4629 552.9128)" class="st13" width="3.38" height="3.38"/>
						
							<rect x="573.19" y="457.86" transform="matrix(0.7071 -0.7071 0.7071 0.7071 -156.5256 540.993)" class="st13" width="3.17" height="3.17"/>
						
							<rect x="561.38" y="446.04" transform="matrix(0.7071 -0.7071 0.7071 0.7071 -151.588 529.0757)" class="st13" width="2.95" height="2.95"/>
						
							<rect x="549.57" y="434.23" transform="matrix(0.7071 -0.7071 0.7071 0.7071 -146.6512 517.1509)" class="st13" width="2.73" height="2.73"/>
						
							<rect x="537.76" y="422.42" transform="matrix(0.7071 -0.7071 0.7071 0.7071 -141.7135 505.2336)" class="st13" width="2.52" height="2.52"/>
						
							<rect x="525.94" y="410.61" transform="matrix(0.7071 -0.7071 0.7071 0.7071 -136.7762 493.3138)" class="st13" width="2.3" height="2.3"/>
						
							<rect x="514.13" y="398.8" transform="matrix(0.7071 -0.7071 0.7071 0.7071 -131.8385 481.3969)" class="st13" width="2.09" height="2.09"/>
						
							<rect x="502.32" y="386.99" transform="matrix(0.7071 -0.7071 0.7071 0.7071 -126.9046 469.4504)" class="st13" width="1.87" height="1.87"/>
					</g>
				</g>
				<g>
					<g>
						
							<rect x="622.59" y="526.57" transform="matrix(0.7071 -0.7071 0.7071 0.7071 -190.871 596.5782)" class="st13" width="4.25" height="4.25"/>
						
							<rect x="610.78" y="514.76" transform="matrix(0.7071 -0.7071 0.7071 0.7071 -185.9337 584.658)" class="st13" width="4.03" height="4.03"/>
						
							<rect x="598.97" y="502.95" transform="matrix(0.7071 -0.7071 0.7071 0.7071 -180.9964 572.7377)" class="st13" width="3.82" height="3.82"/>
						
							<rect x="587.16" y="491.14" transform="matrix(0.7071 -0.7071 0.7071 0.7071 -176.0592 560.8173)" class="st13" width="3.6" height="3.6"/>
						
							<rect x="575.34" y="479.33" transform="matrix(0.7071 -0.7071 0.7071 0.7071 -171.1219 548.8969)" class="st13" width="3.38" height="3.38"/>
						
							<rect x="563.53" y="467.51" transform="matrix(0.7071 -0.7071 0.7071 0.7071 -166.1846 536.9764)" class="st13" width="3.17" height="3.17"/>
						
							<rect x="551.72" y="455.7" transform="matrix(0.7071 -0.7071 0.7071 0.7071 -161.2474 525.0558)" class="st13" width="2.95" height="2.95"/>
						
							<rect x="539.91" y="443.89" transform="matrix(0.7071 -0.7071 0.7071 0.7071 -156.3102 513.1351)" class="st13" width="2.73" height="2.73"/>
						
							<rect x="528.1" y="432.08" transform="matrix(0.7071 -0.7071 0.7071 0.7071 -151.3711 501.2333)" class="st13" width="2.52" height="2.52"/>
						
							<rect x="516.29" y="420.27" transform="matrix(0.7071 -0.7071 0.7071 0.7071 -146.4359 489.2931)" class="st13" width="2.3" height="2.3"/>
						
							<rect x="504.47" y="408.46" transform="matrix(0.7071 -0.7071 0.7071 0.7071 -141.4967 477.3909)" class="st13" width="2.09" height="2.09"/>
						
							<rect x="492.66" y="396.64" transform="matrix(0.7071 -0.7071 0.7071 0.7071 -136.5617 465.4501)" class="st13" width="1.87" height="1.87"/>
					</g>
				</g>
				<g>
					<g>
						
							<rect x="612.93" y="536.23" transform="matrix(0.7071 -0.7071 0.7071 0.7071 -200.5266 592.605)" class="st13" width="4.25" height="4.25"/>
						
							<rect x="601.12" y="524.42" transform="matrix(0.7071 -0.7071 0.7071 0.7071 -195.5892 580.6857)" class="st13" width="4.03" height="4.03"/>
						
							<rect x="589.31" y="512.61" transform="matrix(0.7071 -0.7071 0.7071 0.7071 -190.6528 568.7518)" class="st13" width="3.82" height="3.82"/>
						
							<rect x="577.5" y="500.79" transform="matrix(0.7071 -0.7071 0.7071 0.7071 -185.7146 556.8448)" class="st13" width="3.6" height="3.6"/>
						
							<rect x="565.69" y="488.98" transform="matrix(0.7071 -0.7071 0.7071 0.7071 -180.7781 544.9122)" class="st13" width="3.38" height="3.38"/>
						
							<rect x="553.88" y="477.17" transform="matrix(0.7071 -0.7071 0.7071 0.7071 -175.8396 533.0088)" class="st13" width="3.17" height="3.17"/>
						
							<rect x="542.06" y="465.36" transform="matrix(0.7071 -0.7071 0.7071 0.7071 -170.9034 521.0726)" class="st13" width="2.95" height="2.95"/>
						
							<rect x="530.25" y="453.55" transform="matrix(0.7071 -0.7071 0.7071 0.7071 -165.9647 509.1709)" class="st13" width="2.73" height="2.73"/>
						
							<rect x="518.44" y="441.74" transform="matrix(0.7071 -0.7071 0.7071 0.7071 -161.0289 497.2305)" class="st13" width="2.52" height="2.52"/>
						
							<rect x="506.63" y="429.92" transform="matrix(0.7071 -0.7071 0.7071 0.7071 -156.0914 485.3132)" class="st13" width="2.3" height="2.3"/>
						
							<rect x="494.82" y="418.11" transform="matrix(0.7071 -0.7071 0.7071 0.7071 -151.1541 473.3934)" class="st13" width="2.09" height="2.09"/>
						
							<rect x="483.01" y="406.3" transform="matrix(0.7071 -0.7071 0.7071 0.7071 -146.2185 461.4527)" class="st13" width="1.87" height="1.87"/>
					</g>
				</g>
				<g>
					<g>
						
							<rect x="603.28" y="545.89" transform="matrix(0.7071 -0.7071 0.7071 0.7071 -210.1844 588.6047)" class="st13" width="4.25" height="4.25"/>
						
							<rect x="591.46" y="534.08" transform="matrix(0.7071 -0.7071 0.7071 0.7071 -205.247 576.6854)" class="st13" width="4.03" height="4.03"/>
						
							<rect x="579.65" y="522.26" transform="matrix(0.7071 -0.7071 0.7071 0.7071 -200.3104 564.7515)" class="st13" width="3.82" height="3.82"/>
						
							<rect x="567.84" y="510.45" transform="matrix(0.7071 -0.7071 0.7071 0.7071 -195.3723 552.8467)" class="st13" width="3.6" height="3.6"/>
						
							<rect x="556.03" y="498.64" transform="matrix(0.7071 -0.7071 0.7071 0.7071 -190.4357 540.9119)" class="st13" width="3.38" height="3.38"/>
						
							<rect x="544.22" y="486.83" transform="matrix(0.7071 -0.7071 0.7071 0.7071 -185.4973 529.0107)" class="st13" width="3.17" height="3.17"/>
						
							<rect x="532.41" y="475.02" transform="matrix(0.7071 -0.7071 0.7071 0.7071 -180.5612 517.07)" class="st13" width="2.95" height="2.95"/>
						
							<rect x="520.59" y="463.21" transform="matrix(0.7071 -0.7071 0.7071 0.7071 -175.6226 505.1706)" class="st13" width="2.73" height="2.73"/>
						
							<rect x="508.78" y="451.39" transform="matrix(0.7071 -0.7071 0.7071 0.7071 -170.6863 493.2327)" class="st13" width="2.52" height="2.52"/>
						
							<rect x="496.97" y="439.58" transform="matrix(0.7071 -0.7071 0.7071 0.7071 -165.7476 481.3359)" class="st13" width="2.3" height="2.3"/>
						
							<rect x="485.16" y="427.77" transform="matrix(0.7071 -0.7071 0.7071 0.7071 -160.8117 469.3931)" class="st13" width="2.09" height="2.09"/>
						
							<rect x="473.35" y="415.96" transform="matrix(0.7071 -0.7071 0.7071 0.7071 -155.873 457.4943)" class="st13" width="1.87" height="1.87"/>
					</g>
				</g>
				<g>
					<g>
						
							<rect x="593.62" y="555.54" transform="matrix(0.7071 -0.7071 0.7071 0.7071 -219.8427 584.5909)" class="st13" width="4.25" height="4.25"/>
						
							<rect x="581.81" y="543.73" transform="matrix(0.7071 -0.7071 0.7071 0.7071 -214.9053 572.6711)" class="st13" width="4.03" height="4.03"/>
						
							<rect x="569.99" y="531.92" transform="matrix(0.7071 -0.7071 0.7071 0.7071 -209.9675 560.7657)" class="st13" width="3.82" height="3.82"/>
						
							<rect x="558.18" y="520.11" transform="matrix(0.7071 -0.7071 0.7071 0.7071 -205.0301 548.8464)" class="st13" width="3.6" height="3.6"/>
						
							<rect x="546.37" y="508.3" transform="matrix(0.7071 -0.7071 0.7071 0.7071 -200.0928 536.9251)" class="st13" width="3.38" height="3.38"/>
						
							<rect x="534.56" y="496.49" transform="matrix(0.7071 -0.7071 0.7071 0.7071 -195.1554 525.0081)" class="st13" width="3.17" height="3.17"/>
						
							<rect x="522.75" y="484.68" transform="matrix(0.7071 -0.7071 0.7071 0.7071 -190.2186 513.072)" class="st13" width="2.95" height="2.95"/>
						
							<rect x="510.94" y="472.86" transform="matrix(0.7071 -0.7071 0.7071 0.7071 -185.2806 501.1703)" class="st13" width="2.73" height="2.73"/>
						
							<rect x="499.12" y="461.05" transform="matrix(0.7071 -0.7071 0.7071 0.7071 -180.3439 489.2324)" class="st13" width="2.52" height="2.52"/>
						
							<rect x="487.31" y="449.24" transform="matrix(0.7071 -0.7071 0.7071 0.7071 -175.4059 477.3305)" class="st13" width="2.3" height="2.3"/>
						
							<rect x="475.5" y="437.43" transform="matrix(0.7071 -0.7071 0.7071 0.7071 -170.4693 465.3928)" class="st13" width="2.09" height="2.09"/>
						
							<rect x="463.69" y="425.62" transform="matrix(0.7071 -0.7071 0.7071 0.7071 -165.5309 453.4969)" class="st13" width="1.87" height="1.87"/>
					</g>
				</g>
				<g>
					<g>
						
							<rect x="583.96" y="565.2" transform="matrix(0.7071 -0.7071 0.7071 0.7071 -229.5005 580.577)" class="st13" width="4.25" height="4.25"/>
						
							<rect x="572.15" y="553.39" transform="matrix(0.7071 -0.7071 0.7071 0.7071 -224.5629 568.6707)" class="st13" width="4.03" height="4.03"/>
						
							<rect x="560.34" y="541.58" transform="matrix(0.7071 -0.7071 0.7071 0.7071 -219.6258 556.7385)" class="st13" width="3.82" height="3.82"/>
						
							<rect x="548.53" y="529.77" transform="matrix(0.7071 -0.7071 0.7071 0.7071 -214.6882 544.8311)" class="st13" width="3.6" height="3.6"/>
						
							<rect x="536.71" y="517.96" transform="matrix(0.7071 -0.7071 0.7071 0.7071 -209.7512 532.8957)" class="st13" width="3.38" height="3.38"/>
						
							<rect x="524.9" y="506.14" transform="matrix(0.7071 -0.7071 0.7071 0.7071 -204.8133 521.0078)" class="st13" width="3.17" height="3.17"/>
						
							<rect x="513.09" y="494.33" transform="matrix(0.7071 -0.7071 0.7071 0.7071 -199.8762 509.0739)" class="st13" width="2.95" height="2.95"/>
						
							<rect x="501.28" y="482.52" transform="matrix(0.7071 -0.7071 0.7071 0.7071 -194.9386 497.1677)" class="st13" width="2.73" height="2.73"/>
						
							<rect x="489.47" y="470.71" transform="matrix(0.7071 -0.7071 0.7071 0.7071 -190.0015 485.2321)" class="st13" width="2.52" height="2.52"/>
						
							<rect x="477.66" y="458.9" transform="matrix(0.7071 -0.7071 0.7071 0.7071 -185.0638 473.3327)" class="st13" width="2.3" height="2.3"/>
						
							<rect x="465.84" y="447.09" transform="matrix(0.7071 -0.7071 0.7071 0.7071 -180.1268 461.3951)" class="st13" width="2.09" height="2.09"/>
						
							<rect x="454.03" y="435.27" transform="matrix(0.7071 -0.7071 0.7071 0.7071 -175.189 449.4966)" class="st13" width="1.87" height="1.87"/>
					</g>
				</g>
				<g>
					<g>
						
							<rect x="574.3" y="574.86" transform="matrix(0.7071 -0.7071 0.7071 0.7071 -239.1579 576.5767)" class="st13" width="4.25" height="4.25"/>
						
							<rect x="562.49" y="563.05" transform="matrix(0.7071 -0.7071 0.7071 0.7071 -234.2205 564.6704)" class="st13" width="4.03" height="4.03"/>
						
							<rect x="550.68" y="551.24" transform="matrix(0.7071 -0.7071 0.7071 0.7071 -229.2832 552.7361)" class="st13" width="3.82" height="3.82"/>
						
							<rect x="538.87" y="539.43" transform="matrix(0.7071 -0.7071 0.7071 0.7071 -224.3458 540.8308)" class="st13" width="3.6" height="3.6"/>
						
							<rect x="527.06" y="527.61" transform="matrix(0.7071 -0.7071 0.7071 0.7071 -219.4085 528.8954)" class="st13" width="3.38" height="3.38"/>
						
							<rect x="515.24" y="515.8" transform="matrix(0.7071 -0.7071 0.7071 0.7071 -214.4711 516.9912)" class="st13" width="3.17" height="3.17"/>
						
							<rect x="503.43" y="503.99" transform="matrix(0.7071 -0.7071 0.7071 0.7071 -209.5338 505.0543)" class="st13" width="2.95" height="2.95"/>
						
							<rect x="491.62" y="492.18" transform="matrix(0.7071 -0.7071 0.7071 0.7071 -204.5965 493.1516)" class="st13" width="2.73" height="2.73"/>
						
							<rect x="479.81" y="480.37" transform="matrix(0.7071 -0.7071 0.7071 0.7071 -199.6591 481.2318)" class="st13" width="2.52" height="2.52"/>
						
							<rect x="468" y="468.56" transform="matrix(0.7071 -0.7071 0.7071 0.7071 -194.7218 469.312)" class="st13" width="2.3" height="2.3"/>
						
							<rect x="456.19" y="456.74" transform="matrix(0.7071 -0.7071 0.7071 0.7071 -189.7845 457.3896)" class="st13" width="2.09" height="2.09"/>
						
							<rect x="444.37" y="444.93" transform="matrix(0.7071 -0.7071 0.7071 0.7071 -184.8471 445.4485)" class="st13" width="1.87" height="1.87"/>
					</g>
				</g>
				<g>
					<g>
						
							<rect x="564.65" y="584.52" transform="matrix(0.7071 -0.7071 0.7071 0.7071 -248.8152 572.5764)" class="st13" width="4.25" height="4.25"/>
						
							<rect x="552.83" y="572.71" transform="matrix(0.7071 -0.7071 0.7071 0.7071 -243.8779 560.6561)" class="st13" width="4.03" height="4.03"/>
						
							<rect x="541.02" y="560.89" transform="matrix(0.7071 -0.7071 0.7071 0.7071 -238.9405 548.7358)" class="st13" width="3.82" height="3.82"/>
						
							<rect x="529.21" y="549.08" transform="matrix(0.7071 -0.7071 0.7071 0.7071 -234.0031 536.8155)" class="st13" width="3.6" height="3.6"/>
						
							<rect x="517.4" y="537.27" transform="matrix(0.7071 -0.7071 0.7071 0.7071 -229.0658 524.8951)" class="st13" width="3.38" height="3.38"/>
						
							<rect x="505.59" y="525.46" transform="matrix(0.7071 -0.7071 0.7071 0.7071 -224.1284 512.9746)" class="st13" width="3.17" height="3.17"/>
						
							<rect x="493.78" y="513.65" transform="matrix(0.7071 -0.7071 0.7071 0.7071 -219.1911 501.054)" class="st13" width="2.95" height="2.95"/>
						
							<rect x="481.96" y="501.84" transform="matrix(0.7071 -0.7071 0.7071 0.7071 -214.2537 489.1333)" class="st13" width="2.73" height="2.73"/>
						
							<rect x="470.15" y="490.02" transform="matrix(0.7071 -0.7071 0.7071 0.7071 -209.3163 477.2124)" class="st13" width="2.52" height="2.52"/>
						
							<rect x="458.34" y="478.21" transform="matrix(0.7071 -0.7071 0.7071 0.7071 -204.379 465.2913)" class="st13" width="2.3" height="2.3"/>
						
							<rect x="446.53" y="466.4" transform="matrix(0.7071 -0.7071 0.7071 0.7071 -199.4416 453.37)" class="st13" width="2.09" height="2.09"/>
						
							<rect x="434.72" y="454.59" transform="matrix(0.7071 -0.7071 0.7071 0.7071 -194.5042 441.4509)" class="st13" width="1.87" height="1.87"/>
					</g>
				</g>
				<g>
					<g>
						
							<rect x="554.99" y="594.18" transform="matrix(0.7071 -0.7071 0.7071 0.7071 -258.474 568.6168)" class="st13" width="4.25" height="4.25"/>
						
							<rect x="543.18" y="582.36" transform="matrix(0.7071 -0.7071 0.7071 0.7071 -253.5362 556.6838)" class="st13" width="4.03" height="4.03"/>
						
							<rect x="531.36" y="570.55" transform="matrix(0.7071 -0.7071 0.7071 0.7071 -248.5989 544.7645)" class="st13" width="3.82" height="3.82"/>
						
							<rect x="519.55" y="558.74" transform="matrix(0.7071 -0.7071 0.7071 0.7071 -243.6616 532.8452)" class="st13" width="3.6" height="3.6"/>
						
							<rect x="507.74" y="546.93" transform="matrix(0.7071 -0.7071 0.7071 0.7071 -238.7237 520.9104)" class="st13" width="3.38" height="3.38"/>
						
							<rect x="495.93" y="535.12" transform="matrix(0.7071 -0.7071 0.7071 0.7071 -233.7871 509.009)" class="st13" width="3.17" height="3.17"/>
						
							<rect x="484.12" y="523.31" transform="matrix(0.7071 -0.7071 0.7071 0.7071 -228.8489 497.0687)" class="st13" width="2.95" height="2.95"/>
						
							<rect x="472.31" y="511.49" transform="matrix(0.7071 -0.7071 0.7071 0.7071 -223.9124 485.169)" class="st13" width="2.73" height="2.73"/>
						
							<rect x="460.49" y="499.68" transform="matrix(0.7071 -0.7071 0.7071 0.7071 -218.9743 473.2312)" class="st13" width="2.52" height="2.52"/>
						
							<rect x="448.68" y="487.87" transform="matrix(0.7071 -0.7071 0.7071 0.7071 -214.0371 461.3137)" class="st13" width="2.3" height="2.3"/>
						
							<rect x="436.87" y="476.06" transform="matrix(0.7071 -0.7071 0.7071 0.7071 -209.0997 449.3916)" class="st13" width="2.09" height="2.09"/>
						
							<rect x="425.06" y="464.25" transform="matrix(0.7071 -0.7071 0.7071 0.7071 -204.1622 437.4692)" class="st13" width="1.87" height="1.87"/>
					</g>
				</g>
				<g>
					<g>
						
							<rect x="545.33" y="603.83" transform="matrix(0.7071 -0.7071 0.7071 0.7071 -268.1306 564.5893)" class="st13" width="4.25" height="4.25"/>
						
							<rect x="533.52" y="592.02" transform="matrix(0.7071 -0.7071 0.7071 0.7071 -263.1933 552.6696)" class="st13" width="4.03" height="4.03"/>
						
							<rect x="521.71" y="580.21" transform="matrix(0.7071 -0.7071 0.7071 0.7071 -258.256 540.7497)" class="st13" width="3.82" height="3.82"/>
						
							<rect x="509.9" y="568.4" transform="matrix(0.7071 -0.7071 0.7071 0.7071 -253.3195 528.8449)" class="st13" width="3.6" height="3.6"/>
						
							<rect x="498.08" y="556.59" transform="matrix(0.7071 -0.7071 0.7071 0.7071 -248.382 516.9238)" class="st13" width="3.38" height="3.38"/>
						
							<rect x="486.27" y="544.77" transform="matrix(0.7071 -0.7071 0.7071 0.7071 -243.4449 505.0066)" class="st13" width="3.17" height="3.17"/>
						
							<rect x="474.46" y="532.96" transform="matrix(0.7071 -0.7071 0.7071 0.7071 -238.5066 493.0705)" class="st13" width="2.95" height="2.95"/>
						
							<rect x="462.65" y="521.15" transform="matrix(0.7071 -0.7071 0.7071 0.7071 -233.5704 481.1687)" class="st13" width="2.73" height="2.73"/>
						
							<rect x="450.84" y="509.34" transform="matrix(0.7071 -0.7071 0.7071 0.7071 -228.6319 469.2309)" class="st13" width="2.52" height="2.52"/>
						
							<rect x="439.03" y="497.53" transform="matrix(0.7071 -0.7071 0.7071 0.7071 -223.6957 457.3292)" class="st13" width="2.3" height="2.3"/>
						
							<rect x="427.21" y="485.72" transform="matrix(0.7071 -0.7071 0.7071 0.7071 -218.7572 445.3913)" class="st13" width="2.09" height="2.09"/>
						
							<rect x="415.4" y="473.9" transform="matrix(0.7071 -0.7071 0.7071 0.7071 -213.8215 433.4953)" class="st13" width="1.87" height="1.87"/>
					</g>
				</g>
				<g>
					<g>
						
							<rect x="535.67" y="613.49" transform="matrix(0.7071 -0.7071 0.7071 0.7071 -277.7883 560.589)" class="st13" width="4.25" height="4.25"/>
						
							<rect x="523.86" y="601.68" transform="matrix(0.7071 -0.7071 0.7071 0.7071 -272.8509 548.6692)" class="st13" width="4.03" height="4.03"/>
						
							<rect x="512.05" y="589.87" transform="matrix(0.7071 -0.7071 0.7071 0.7071 -267.9136 536.7494)" class="st13" width="3.82" height="3.82"/>
						
							<rect x="500.24" y="578.06" transform="matrix(0.7071 -0.7071 0.7071 0.7071 -262.9762 524.8296)" class="st13" width="3.6" height="3.6"/>
						
							<rect x="488.43" y="566.24" transform="matrix(0.7071 -0.7071 0.7071 0.7071 -258.0389 512.9098)" class="st13" width="3.38" height="3.38"/>
						
							<rect x="476.61" y="554.43" transform="matrix(0.7071 -0.7071 0.7071 0.7071 -253.1015 500.99)" class="st13" width="3.17" height="3.17"/>
						
							<rect x="464.8" y="542.62" transform="matrix(0.7071 -0.7071 0.7071 0.7071 -248.1655 489.0873)" class="st13" width="2.95" height="2.95"/>
						
							<rect x="452.99" y="530.81" transform="matrix(0.7071 -0.7071 0.7071 0.7071 -243.2281 477.1664)" class="st13" width="2.73" height="2.73"/>
						
							<rect x="441.18" y="519" transform="matrix(0.7071 -0.7071 0.7071 0.7071 -238.2911 465.2497)" class="st13" width="2.52" height="2.52"/>
						
							<rect x="429.37" y="507.19" transform="matrix(0.7071 -0.7071 0.7071 0.7071 -233.3539 453.3312)" class="st13" width="2.3" height="2.3"/>
						
							<rect x="417.56" y="495.37" transform="matrix(0.7071 -0.7071 0.7071 0.7071 -228.4151 441.3933)" class="st13" width="2.09" height="2.09"/>
						
							<rect x="405.74" y="483.56" transform="matrix(0.7071 -0.7071 0.7071 0.7071 -223.4796 429.495)" class="st13" width="1.87" height="1.87"/>
					</g>
				</g>
			</g>
			<path class="st3" d="M750.5,275.47c-14.28,0-25.85,11.58-25.85,25.85c0,14.28,11.58,25.85,25.85,25.85
				c14.28,0,25.85-11.58,25.85-25.85C776.35,287.05,764.78,275.47,750.5,275.47z M750.5,313.42c-6.68,0-12.09-5.41-12.09-12.09
				c0-6.68,5.41-12.09,12.09-12.09c6.68,0,12.09,5.41,12.09,12.09C762.59,308,757.18,313.42,750.5,313.42z"/>
			<g>
				<defs>
					<circle id="SVGID_3_" cx="524.83" cy="194.13" r="55.1"/>
				</defs>
				<clipPath id="SVGID_4_">
					<use xlink:href="#SVGID_3_"  style="overflow:visible;"/>
				</clipPath>
				<path class="st14" d="M510.65,136.44c-15.24,16.18-31.6,31.23-46.84,47.47"/>
				<path class="st14" d="M517.63,136.39c-16.97,18.19-35.96,35.86-53.85,53.83"/>
				<path class="st14" d="M524.07,136.4c-20.15,20.14-40.44,40.44-60.43,60.44"/>
				<path class="st14" d="M530.46,136.55c-21.96,21.96-44.21,44.22-66.77,66.76"/>
				<path class="st14" d="M538.3,136.49c-24.55,23.99-49.43,48.2-74.53,73.14"/>
				<path class="st14" d="M543.43,136.58c-25.76,26.51-51.29,51.39-77.47,78.22c-0.65,0.65-1.96,0.65-2.31,1.55"/>
				<path class="st14" d="M550.55,136.46c-15.86,16.81-32.88,31.87-49.89,48.89c-12.44,13.09-24.87,24.22-36.79,37.28"/>
				<path class="st14" d="M554.96,137.76c-30.09,30.57-61.51,60.02-91.19,91.41"/>
				<path class="st14" d="M554.9,144.25c-30.03,29.97-60.79,60.74-91.02,91.13"/>
				<path class="st14" d="M558.2,147.77c-31.36,31.69-63.44,62.45-94.3,94.2"/>
				<path class="st14" d="M564.72,147.74c-33.96,33.69-66.68,68.38-101.1,101.01"/>
				<path class="st14" d="M570.76,147.97c-34.76,34.76-68.8,68.8-103.55,103.55"/>
				<path class="st14" d="M577.12,147.97c-34.57,34.1-68.61,68.79-103.5,103.61"/>
				<path class="st14" d="M580.54,150.91c-33.41,33.13-66.14,67.16-100.48,100.7"/>
				<path class="st14" d="M580.74,157.09c-31.65,31.53-61.76,64.26-94.21,94.51"/>
				<path class="st14" d="M580.5,164.17c-29.45,29.03-58.25,58.49-87.47,87.4"/>
				<path class="st14" d="M580.69,170.16c-27.02,26.97-53.85,54.46-81.13,81.35"/>
				<path class="st14" d="M580.62,176.76c-24.98,24.95-49.85,49.82-74.67,74.83"/>
				<path class="st14" d="M580.69,183.23c-22.44,23.06-45.35,45.97-68.18,68.27"/>
				<path class="st14" d="M580.61,189.83c-20.39,20.39-41.34,41.33-61.68,61.71"/>
				<path class="st14" d="M580.44,196.54c-18.26,18.27-36.59,36.59-55.07,55.04"/>
				<path class="st14" d="M580.64,202.6c-12.7,12.65-25.39,25.32-38.01,38.05c-3.61,3.64-7.21,7.29-10.81,10.94"/>
				<path class="st14" d="M580.59,209.85c-13.83,14.12-28.23,28.52-42.32,41.76"/>
			</g>
			<circle class="st15" cx="589.79" cy="236.27" r="5.36"/>
			<path class="st16" d="M134.98,385.88c0,2.96-2.4,5.36-5.36,5.36c-2.96,0-5.36-2.4-5.36-5.36c0-2.96,2.4-5.36,5.36-5.36
				C132.58,380.52,134.98,382.92,134.98,385.88z"/>
		</g>
	</g>
</g>
</svg>
